  <svg
    id="Capa_1"
    enable-background="new 0 0 512 512"
    height="512"
    viewBox="0 0 512 512"
    width="512"
    xmlns="http://www.w3.org/2000/svg"
  >
    <g>
      <g>
        <ellipse cx="256" cy="419.284" fill="#cdebfc" rx="256" ry="92.716" />
      </g>
      <g>
        <ellipse
          cx="256"
          cy="419.284"
          fill="#2a9e96"
          rx="169.207"
          ry="61.282"
        />
      </g>
      <g>
        <ellipse cx="256" cy="419.284" fill="#2a9e96" rx="82.414" ry="29.848" />
      </g>
      <g>
        <path
          d="m256 285.36c60.877 0 110.228-49.351 110.228-110.228 0-65.057-64.125-137.748-94.555-168.581-8.621-8.735-22.725-8.735-31.346 0-30.431 30.833-94.555 103.524-94.555 168.581 0 60.877 49.351 110.228 110.228 110.228z"
          fill="#cdebfc"
        />
      </g>
      <g>
        <path
          d="m201.289 175.132c0-57.344 49.816-120.611 82.47-155.925-4.392-4.75-8.478-9-12.086-12.656-8.621-8.735-22.725-8.735-31.346 0-30.431 30.833-94.555 103.524-94.555 168.581 0 60.877 49.351 110.228 110.228 110.228 9.588 0 18.89-1.227 27.759-3.527-47.44-12.307-82.47-55.412-82.47-106.701z"
          fill="#2a9e96"
        />
      </g>
      <g>
        <g>
          <g>
            <path
              d="m191.666 186.691c-4.143 0-7.5-3.357-7.5-7.5v-12.362c0-4.143 3.357-7.5 7.5-7.5s7.5 3.357 7.5 7.5v12.362c0 4.143-3.357 7.5-7.5 7.5z"
              fill="#2a9e96"
            />
          </g>
          <g>
            <path
              d="m320.333 186.691c-4.143 0-7.5-3.357-7.5-7.5v-12.362c0-4.143 3.357-7.5 7.5-7.5s7.5 3.357 7.5 7.5v12.362c0 4.143-3.357 7.5-7.5 7.5z"
              fill="#2a9e96"
            />
          </g>
          <g>
            <path
              d="m256 194.05c-8.669 0-16.911-3.754-22.615-10.299-2.722-3.123-2.396-7.86.727-10.582 3.122-2.721 7.859-2.396 10.582.727 2.854 3.275 6.976 5.154 11.307 5.154s8.452-1.879 11.307-5.154c2.723-3.123 7.457-3.448 10.582-.727 3.122 2.722 3.448 7.459.727 10.582-5.706 6.545-13.948 10.299-22.617 10.299z"
              fill="#2a9e96"
            />
          </g>
        </g>
      </g>
    </g>
  </svg>